<svg width="111" height="17" viewBox="0 0 111 17" fill="none" xmlns="http://www.w3.org/2000/svg">
<path d="M0.650568 16V13.7131L8.52557 3.83949V3.71023H0.909091V0.727272H12.9304V3.18324L5.43324 12.8878V13.017H13.1889V16H0.650568ZM22.896 16.2983C21.3647 16.2983 20.0423 15.9801 18.9286 15.3438C17.8216 14.7008 16.9698 13.7926 16.3732 12.6193C15.7766 11.4394 15.4783 10.0507 15.4783 8.45312C15.4783 6.8821 15.7766 5.50331 16.3732 4.31676C16.9764 3.12358 17.8183 2.19555 18.8988 1.53267C19.9793 0.863163 21.2487 0.528409 22.707 0.528409C23.6483 0.528409 24.5366 0.680871 25.3718 0.985795C26.2137 1.28409 26.9561 1.74811 27.5991 2.37784C28.2487 3.00758 28.7591 3.80966 29.1303 4.78409C29.5015 5.75189 29.6871 6.9053 29.6871 8.24432V9.34801H17.1687V6.92188H26.2369C26.2302 6.23248 26.0811 5.61932 25.7894 5.08239C25.4978 4.53883 25.0901 4.11127 24.5664 3.79972C24.0494 3.48816 23.4461 3.33239 22.7567 3.33239C22.021 3.33239 21.3746 3.51136 20.8178 3.86932C20.261 4.22064 19.8268 4.68466 19.5153 5.26136C19.2103 5.83144 19.0546 6.45786 19.0479 7.14062V9.25852C19.0479 10.1468 19.2103 10.9091 19.5352 11.5455C19.86 12.1752 20.314 12.6591 20.8974 12.9972C21.4807 13.3286 22.1635 13.4943 22.9457 13.4943C23.4693 13.4943 23.9433 13.4214 24.3675 13.2756C24.7918 13.1231 25.1597 12.901 25.4712 12.6094C25.7828 12.3177 26.0181 11.9564 26.1772 11.5256L29.538 11.9034C29.3259 12.7917 28.9215 13.5672 28.3249 14.2301C27.735 14.8864 26.9793 15.3968 26.0579 15.7614C25.1365 16.1193 24.0825 16.2983 22.896 16.2983ZM34.9496 16.2188C34.3464 16.2188 33.8293 16.0066 33.3984 15.5824C32.9676 15.1581 32.7554 14.6411 32.7621 14.0312C32.7554 13.4347 32.9676 12.9242 33.3984 12.5C33.8293 12.0758 34.3464 11.8636 34.9496 11.8636C35.5329 11.8636 36.04 12.0758 36.4709 12.5C36.9084 12.9242 37.1304 13.4347 37.1371 14.0312C37.1304 14.4356 37.0244 14.8035 36.8189 15.1349C36.62 15.4664 36.3549 15.7315 36.0234 15.9304C35.6986 16.1226 35.3407 16.2188 34.9496 16.2188ZM44.4528 7.05114V16H40.8533V0.727272H44.2937V3.32244H44.4727C44.824 2.46733 45.3841 1.78788 46.1531 1.28409C46.9286 0.780303 47.8865 0.528409 49.0266 0.528409C50.0806 0.528409 50.9987 0.753788 51.7809 1.20454C52.5697 1.6553 53.1796 2.30824 53.6104 3.16335C54.0479 4.01847 54.2634 5.05587 54.2567 6.27557V16H50.6573V6.83239C50.6573 5.81155 50.3922 5.01278 49.8619 4.43608C49.3382 3.85937 48.6123 3.57102 47.6843 3.57102C47.0546 3.57102 46.4944 3.71023 46.0039 3.98864C45.52 4.26042 45.1388 4.65483 44.8604 5.17188C44.5887 5.68892 44.4528 6.31534 44.4528 7.05114ZM64.6772 16.2983C63.146 16.2983 61.8235 15.9801 60.7099 15.3438C59.6029 14.7008 58.7511 13.7926 58.1545 12.6193C57.5579 11.4394 57.2596 10.0507 57.2596 8.45312C57.2596 6.8821 57.5579 5.50331 58.1545 4.31676C58.7577 3.12358 59.5996 2.19555 60.68 1.53267C61.7605 0.863163 63.0299 0.528409 64.4883 0.528409C65.4296 0.528409 66.3178 0.680871 67.1531 0.985795C67.9949 1.28409 68.7373 1.74811 69.3803 2.37784C70.0299 3.00758 70.5404 3.80966 70.9116 4.78409C71.2828 5.75189 71.4684 6.9053 71.4684 8.24432V9.34801H58.9499V6.92188H68.0181C68.0115 6.23248 67.8623 5.61932 67.5707 5.08239C67.279 4.53883 66.8713 4.11127 66.3477 3.79972C65.8306 3.48816 65.2274 3.33239 64.538 3.33239C63.8022 3.33239 63.1559 3.51136 62.5991 3.86932C62.0423 4.22064 61.6081 4.68466 61.2965 5.26136C60.9916 5.83144 60.8358 6.45786 60.8292 7.14062V9.25852C60.8292 10.1468 60.9916 10.9091 61.3164 11.5455C61.6412 12.1752 62.0953 12.6591 62.6786 12.9972C63.262 13.3286 63.9447 13.4943 64.7269 13.4943C65.2506 13.4943 65.7246 13.4214 66.1488 13.2756C66.573 13.1231 66.9409 12.901 67.2525 12.6094C67.564 12.3177 67.7994 11.9564 67.9585 11.5256L71.3192 11.9034C71.1071 12.7917 70.7028 13.5672 70.1062 14.2301C69.5162 14.8864 68.7605 15.3968 67.8391 15.7614C66.9177 16.1193 65.8638 16.2983 64.6772 16.2983ZM77.5835 16L73.2681 0.727272H76.9371L79.6218 11.4659H79.761L82.5053 0.727272H86.1346L88.8789 11.4062H89.0281L91.6729 0.727272H95.3519L91.0266 16H87.2781L84.4144 5.67898H84.2056L81.342 16H77.5835ZM109.936 4.7642L106.655 5.12216C106.562 4.79072 106.4 4.47917 106.168 4.1875C105.942 3.89583 105.637 3.66051 105.253 3.48153C104.868 3.30256 104.398 3.21307 103.841 3.21307C103.092 3.21307 102.462 3.37547 101.952 3.70028C101.448 4.02509 101.199 4.44602 101.206 4.96307C101.199 5.4072 101.362 5.76847 101.693 6.04688C102.031 6.32528 102.588 6.55398 103.364 6.73295L105.969 7.28977C107.414 7.60133 108.488 8.09517 109.19 8.77131C109.9 9.44744 110.258 10.3324 110.264 11.4261C110.258 12.3873 109.976 13.2358 109.419 13.9716C108.869 14.7008 108.103 15.2708 107.122 15.6818C106.141 16.0928 105.014 16.2983 103.741 16.2983C101.872 16.2983 100.367 15.9072 99.2273 15.125C98.0871 14.3362 97.4077 13.2391 97.1889 11.8338L100.699 11.4957C100.858 12.1851 101.196 12.7055 101.713 13.0568C102.23 13.4081 102.903 13.5838 103.732 13.5838C104.587 13.5838 105.273 13.4081 105.79 13.0568C106.313 12.7055 106.575 12.2713 106.575 11.7543C106.575 11.3168 106.406 10.9555 106.068 10.6705C105.737 10.3854 105.22 10.1667 104.517 10.0142L101.912 9.46733C100.447 9.16241 99.3632 8.64867 98.6605 7.92614C97.9579 7.19697 97.6098 6.27557 97.6165 5.16193C97.6098 4.22064 97.8651 3.4053 98.3821 2.71591C98.9058 2.01989 99.6316 1.48295 100.56 1.10511C101.494 0.720644 102.571 0.528409 103.791 0.528409C105.581 0.528409 106.99 0.909564 108.017 1.67188C109.051 2.43419 109.691 3.46496 109.936 4.7642Z" fill="#E1E1E6"/>
</svg>
